<?xml version="1.0" standalone="no"?>
<!DOCTYPE svg PUBLIC "-//W3C//DTD SVG 20010904//EN"
 "http://www.w3.org/TR/2001/REC-SVG-20010904/DTD/svg10.dtd">
<svg version="1.0" xmlns="http://www.w3.org/2000/svg"
 width="512.000000pt" height="512.000000pt" viewBox="0 0 512.000000 512.000000"
 preserveAspectRatio="xMidYMid meet">

<g transform="translate(0.000000,512.000000) scale(0.100000,-0.100000)"
fill="#000000" stroke="none">
<path d="M2740 4232 c0 -12 19 -26 26 -19 2 2 -2 10 -11 17 -9 8 -15 8 -15 2z"/>
<path d="M2532 4213 c-25 -10 -34 -53 -17 -79 18 -28 65 -33 85 -9 40 48 -10
111 -68 88z"/>
<path d="M3018 4020 l3 -140 250 0 249 0 0 -1305 0 -1305 -960 0 -960 0 0
1305 0 1305 250 0 250 0 0 50 0 50 -284 0 -285 0 -20 -26 -21 -27 0 -1366 c0
-804 4 -1372 9 -1380 5 -8 270 -275 588 -593 l578 -578 60 0 c85 0 308 35 450
69 916 225 1641 950 1866 1866 34 141 69 365 69 450 l0 60 -752 755 c-414 415
-764 760 -778 767 -17 8 -87 12 -210 13 l-185 0 -85 85 -85 85 3 -140z"/>
<path d="M3265 3440 l-130 -130 -51 56 c-45 48 -55 54 -72 45 -42 -22 -37 -40
42 -139 72 -91 72 -91 249 86 115 115 147 153 147 174 0 24 -16 38 -43 38 -7
0 -71 -58 -142 -130z"/>
<path d="M2560 3335 l0 -45 140 0 140 0 0 45 0 45 -140 0 -140 0 0 -45z"/>
<path d="M3264 2928 c-74 -72 -135 -130 -137 -127 -58 75 -82 99 -103 99 -25
0 -44 -26 -36 -50 5 -14 111 -150 117 -150 2 0 11 -3 20 -6 22 -9 325 291 325
321 0 24 -18 45 -39 45 -8 0 -74 -59 -147 -132z"/>
<path d="M2560 2815 l0 -45 140 0 140 0 0 45 0 45 -140 0 -140 0 0 -45z"/>
<path d="M3265 2410 l-130 -131 -24 28 c-78 92 -86 97 -115 68 -10 -10 -12
-23 -8 -35 13 -35 122 -160 140 -160 9 0 86 69 171 154 124 124 152 157 149
177 -2 17 -10 25 -28 27 -20 2 -49 -22 -155 -128z"/>
<path d="M2560 2305 l0 -45 140 0 140 0 0 45 0 45 -140 0 -140 0 0 -45z"/>
<path d="M3265 1900 l-130 -131 -50 56 c-27 31 -55 55 -62 55 -6 0 -19 -10
-27 -22 -18 -26 -13 -37 59 -126 32 -39 57 -62 70 -62 12 1 82 60 173 149 138
132 153 151 150 177 -2 22 -9 30 -28 32 -20 2 -49 -22 -155 -128z"/>
<path d="M2560 1785 l0 -45 140 0 140 0 0 45 0 45 -140 0 -140 0 0 -45z"/>
</g>
</svg>
